Coordinates
version=1
nRows=17
nColumns=36
inDegrees=yes

Units are S.I. units (second, meters, Newtons, ...)
If the header above contains a line with 'inDegrees', this indicates whether rotational values are in degrees (yes) or radians (no).

endheader
time	pelvis_tilt	pelvis_list	pelvis_rotation	pelvis_tx	pelvis_ty	pelvis_tz	hip_flexion_r	hip_adduction_r	hip_rotation_r	knee_angle_r	knee_angle_r_beta	ankle_angle_r	subtalar_angle_r	mtp_angle_r	hip_flexion_l	hip_adduction_l	hip_rotation_l	knee_angle_l	knee_angle_l_beta	ankle_angle_l	subtalar_angle_l	mtp_angle_l	lumbar_extension	lumbar_bending	lumbar_rotation	arm_flex_r	arm_add_r	arm_rot_r	elbow_flex_r	pro_sup_r	arm_flex_l	arm_add_l	arm_rot_l	elbow_flex_l	pro_sup_l
      1.48333330	    -12.44171614	      1.94643891	     -1.06482918	     -0.84409023	      1.25733380	     -0.11730629	     16.51309732	     -0.40905540	      4.22843959	     16.38047198	      0.28589317	      6.19246103	    -13.21818851	     -7.49999987	     15.73417101	      3.90278315	      4.22080801	     16.09289811	      0.28087406	      8.87049434	     -9.43417599	     -7.49999987	    -14.01941450	      0.76998121	     -1.45634310	      1.32365541	    -20.08235283	     44.81986829	     20.57848345	     56.04673031	      1.58309381	    -21.89632203	     18.37412522	     21.52541482	     51.36197185
      1.48750000	    -12.50010206	      2.02117026	     -1.11950268	     -0.84341906	      1.25862047	     -0.11699014	     16.63319460	     -0.48911633	      4.13828091	     16.39431322	      0.28613474	      6.01682278	    -12.93903489	     -7.49999987	     15.82720042	      3.93961810	      3.94142344	     16.07488569	      0.28055968	      8.68392808	     -9.22314442	     -7.49999987	    -14.39263854	      0.62172627	     -1.63986240	      0.98512284	    -20.25667159	     44.84601741	     20.21471208	     55.81055484	      1.19828955	    -22.24751854	     17.80599356	     20.94570347	     51.29249045
      1.49166670	    -12.71337195	      2.09046759	     -1.16853598	     -0.84533408	      1.25190994	     -0.11680962	     17.04398390	     -0.54984282	      4.04087011	     16.67778419	      0.29108225	      6.26506087	    -12.66530861	     -7.49999987	     16.23586838	      3.97577173	      3.61963821	     16.33063969	      0.28502343	      8.98587849	     -8.91879029	     -7.49999987	    -14.47431205	      0.46285642	     -1.99073213	      1.18239987	    -20.86173943	     50.49195155	     19.84788250	     47.06410129	      0.37779494	    -22.85018899	     18.17785917	     20.87778813	     44.43482895
      1.49583330	    -12.73887588	      2.15312717	     -1.15369357	     -0.84577678	      1.25597578	     -0.11739418	     17.17691798	     -0.63996506	      3.92756759	     16.82962121	      0.29373230	      6.14521010	    -12.60859438	     -7.49999987	     16.37870632	      4.02966459	      3.44123183	     16.44874237	      0.28708471	      8.86395925	     -8.90526712	     -7.49999987	    -14.88040312	      0.36529864	     -2.04884546	      0.67318090	    -21.25230906	     50.51884175	     19.63738285	     47.04783136	      0.02900293	    -23.30792717	     18.12664104	     20.60306998	     44.41804712
      1.50000000	    -13.02260769	      2.21722179	     -1.11504272	     -0.84609829	      1.25569712	     -0.11765235	     17.67324707	     -0.73172996	      3.81726806	     17.18009721	      0.29984926	      6.26094879	    -12.30960248	     -7.49999987	     16.85190306	      4.05829874	      3.19012356	     16.67294633	      0.29099781	      8.83228385	     -8.68660045	     -7.49999987	    -14.92965625	      0.20188488	     -2.19855249	      0.05511548	    -21.61170030	     50.31492635	     19.42683958	     47.67911342	     -0.50208366	    -23.69168075	     17.66738542	     19.90885160	     45.19411320
      1.50416670	    -13.29415160	      2.21600875	     -1.04641130	     -0.84809245	      1.25204241	     -0.11721577	     18.22292029	     -0.73181180	      3.69487497	     17.58717959	      0.30695419	      6.47606614	    -12.10194149	     -7.49999987	     17.45270942	      4.02446617	      2.97466302	     17.11294330	      0.29867721	      8.98833985	     -8.45191612	     -7.49999987	    -15.12784377	      0.16972653	     -2.30841128	     -0.53124411	    -22.10514577	     50.13353421	     19.43967964	     48.13258966	     -1.01140035	    -24.18038183	     17.11226270	     19.53389978	     45.79698908
      1.50833330	    -13.63163683	      2.22068595	     -0.99146806	     -0.84628617	      1.25085956	     -0.11556026	     18.82597787	     -0.70158711	      3.62358636	     18.12084515	      0.31626841	      6.65494508	    -12.06813268	     -7.49999987	     18.10244663	      3.94370212	      2.77026616	     17.64711498	      0.30800026	      9.17651529	     -8.10253300	     -7.49999987	    -15.12210480	      0.04462440	     -2.36636289	     -1.27245972	    -22.54332983	     50.04860028	     19.32710324	     48.57669888	     -1.55676464	    -24.73317853	     16.62136672	     19.05450074	     46.36139861
      1.51250000	    -13.79049561	      2.20243755	     -0.95176362	     -0.84487851	      1.25396397	     -0.11498945	     19.13110558	     -0.66969523	      3.40701532	     18.48613558	      0.32264393	      6.92271105	    -11.83820827	     -7.49999987	     18.47104360	      3.79268633	      2.45104271	     18.03730607	      0.31481038	      9.49181357	     -7.46533397	     -7.49999987	    -15.43211713	     -0.04813506	     -2.40325153	     -1.93717950	    -22.80867878	     49.90561273	     19.16239536	     49.02299969	     -1.99853063	    -25.08993975	     15.40835827	     18.60569771	     47.06558172
      1.51666670	    -13.87856671	      2.17998062	     -0.89829448	     -0.84595457	      1.25404742	     -0.11462874	     19.37859597	     -0.62360684	      3.25247169	     18.82602800	      0.32857617	      7.00801318	    -11.87161400	     -7.49999987	     18.73461265	      3.67947740	      2.33416667	     18.39571376	      0.32106577	      9.64015093	     -7.04772090	     -7.49999987	    -15.74341894	     -0.08807767	     -2.53395950	     -2.42434243	    -23.14655744	     49.91591970	     18.91303427	     49.28596621	     -2.49739361	    -25.57631607	     15.07292493	     18.10373936	     47.48050097
      1.52083330	    -14.14944406	      2.18028045	     -0.84653745	     -0.84720508	      1.25084267	     -0.11374037	     19.88132389	     -0.59274346	      3.15908957	     19.19287095	      0.33497879	      7.15454723	    -11.82242535	     -7.49999987	     19.24253540	      3.55951985	      1.92594794	     18.85280654	      0.32904355	     10.00129685	     -6.52998132	     -7.49999987	    -15.93128671	     -0.16830374	     -2.56221824	     -3.09551995	    -23.41786516	     50.03740001	     18.74694971	     49.43884529	     -3.07251572	    -26.13057499	     13.81467702	     18.03881488	     47.97645988
      1.52500000	    -14.43985623	      2.22611075	     -0.77507396	     -0.84742353	      1.24579681	     -0.11460236	     20.47699661	     -0.64144426	      2.99524438	     19.70598027	      0.34393424	      7.50310913	    -11.78803145	     -7.49999987	     19.81774493	      3.52220535	      1.57134659	     19.33635733	      0.33748310	     10.40138704	     -5.94788469	     -7.49999987	    -16.06228638	     -0.24109470	     -3.02706037	     -3.15637372	    -23.99221530	     54.20218067	     18.57251397	     44.62773095	     -4.08227815	    -26.80993294	     13.78206266	     18.10810358	     45.54263376
      1.52916670	    -14.83940973	      2.24599148	     -0.70809071	     -0.84854530	      1.24476796	     -0.11499390	     21.19750575	     -0.68738239	      2.82838946	     20.16700711	      0.35198067	      7.68770206	    -11.84983002	     -7.49999987	     20.51913959	      3.47788964	      1.23717479	     19.78751217	      0.34535724	     10.78925158	     -5.51733088	     -7.49999987	    -16.16087536	     -0.22914662	     -2.99556280	     -3.94321435	    -24.33962114	     53.79539214	     18.43909955	     45.13910034	     -4.51760203	    -27.33208078	     13.47552095	     17.82159824	     46.23089093
      1.53333330	    -14.95801343	      2.26279319	     -0.64567692	     -0.84926155	      1.24993892	     -0.11558330	     21.48752913	     -0.75129526	      2.72001499	     20.23022397	      0.35308402	      7.65073263	    -11.85238728	     -7.49999987	     20.74894473	      3.50240200	      1.08074175	     19.83779454	      0.34623483	     10.75519251	     -5.51765039	     -7.49999987	    -16.71952730	     -0.19732013	     -3.01644365	     -4.40181719	    -24.67402862	     53.82241138	     18.31812634	     45.13657800	     -4.83908081	    -27.69331395	     13.43645957	     17.68497634	     46.22588461
      1.53750000	    -15.40437567	      2.41475970	     -0.62722958	     -0.84867186	      1.24832808	     -0.11692110	     22.46204626	     -0.94952112	      2.47831688	     20.87957097	      0.36441726	      7.66877965	    -11.82747673	     -7.49999987	     21.52371746	      3.55825762	      0.50519007	     20.33235556	      0.35486655	     10.64681207	     -5.33390731	     -7.49999987	    -16.72594733	     -0.38476253	     -3.04891403	     -5.06381341	    -25.04458914	     53.36396611	     18.17865580	     46.52672416	     -5.40879919	    -28.02636102	     12.79112143	     17.25231925	     47.60897251
      1.54166670	    -15.52736595	      2.48309109	     -0.65980665	     -0.84763428	      1.24902405	     -0.11575877	     22.81904895	     -1.03344832	      2.32592014	     21.13976199	      0.36895845	      7.66572657	    -11.54192671	     -7.49999987	     21.78632931	      3.56426392	      0.21871432	     20.50594466	      0.35789625	     10.53651923	     -5.01929010	     -7.49999987	    -17.13614137	     -0.45146010	     -3.01747309	     -5.59499892	    -25.25186240	     53.22893681	     17.85551311	     46.73670295	     -5.87424175	    -28.25570535	     12.40089428	     16.96175721	     47.91122187
      1.54583330	    -15.68549621	      2.53099331	     -0.70816088	     -0.84795902	      1.24705753	     -0.11475008	     23.20963138	     -1.07713402	      2.22201375	     21.47388856	      0.37479006	      7.81139095	    -11.27065061	     -7.49999987	     22.02337956	      3.52778330	     -0.07335586	     20.68861870	      0.36108451	     10.56707505	     -4.79193026	     -7.49999987	    -17.39905182	     -0.53149029	     -2.99848648	     -6.18845879	    -25.46842659	     53.01970923	     17.73481249	     47.46778866	     -6.57680502	    -28.60255018	     11.87139750	     16.79026387	     48.65740651
      1.55000000	    -16.25064712	      2.51829501	     -0.81177656	     -0.84859306	      1.24604794	     -0.11453291	     24.06754226	     -1.05492075	      1.98598198	     21.91085722	      0.38241660	      8.07828311	    -11.23186791	     -7.49999987	     22.79237220	      3.43548270	     -0.14563077	     21.05333223	      0.36744997	     10.79047412	     -4.68806920	     -7.49999987	    -17.02502288	     -0.63130806	     -2.86923393	     -7.00128305	    -25.94118754	     52.89724639	     18.04840824	     48.16661342	     -7.32142265	    -28.99711235	     11.66048440	     16.96553350	     49.30036777
